<svg width="195" height="188" viewBox="0 0 195 188" fill="none" xmlns="http://www.w3.org/2000/svg">
<mask id="mask0_757_4311" style="mask-type:luminance" maskUnits="userSpaceOnUse" x="100" y="0" width="31" height="73">
<path d="M100.781 0H130.115V72.1563H100.781V0Z" fill="white"/>
</mask>
<g mask="url(#mask0_757_4311)">
<path d="M105.88 66.7396V53.2135L117.255 47.1094C121.021 45.0885 124 42.2396 126.042 38.8333C128.083 35.4323 129.188 30.9844 129.188 26.7135V0L126.125 1.76563L113.151 9.1875C109.557 11.2292 106.708 14.0781 104.771 17.4167C102.839 20.776 101.797 27.2865 101.797 31.4323V43.9375L103.729 42.8958C105.094 42.1719 105.901 40.8333 105.901 39.2813V31.4323C105.901 28.0104 106.75 24.8385 108.323 22.1146C109.901 19.3958 112.24 17.0781 115.214 15.375L125.125 9.69792V26.7135C125.125 30.2188 124.234 33.4948 122.573 36.2604C120.917 39.0469 118.469 41.3646 115.385 43.026L103.984 49.1302C102.625 49.849 101.818 51.1927 101.818 52.7448V71.375L103.75 70.3333C105.094 69.6302 105.88 68.2917 105.88 66.7396Z" fill="#BF202F"/>
</g>
<mask id="mask1_757_4311" style="mask-type:luminance" maskUnits="userSpaceOnUse" x="64" y="0" width="31" height="73">
<path d="M64.7812 0H94.1146V72.1563H64.7812V0Z" fill="white"/>
</mask>
<g mask="url(#mask1_757_4311)">
<path d="M77.6357 47.1302L89.0107 53.2343V66.7604C89.0107 68.3125 89.8024 69.651 91.1826 70.375L93.1201 71.4166V52.7864C93.1201 51.2343 92.3076 49.8958 90.9482 49.1718L79.5472 43.0677C76.4639 41.4062 74.0212 39.0885 72.3597 36.302C70.7035 33.5364 69.8076 30.2604 69.8076 26.7552V9.73954L79.7191 15.4166C82.6774 17.1198 85.016 19.4375 86.6097 22.1614C88.1826 24.8802 89.0368 28.052 89.0368 31.4739V39.3229C89.0368 40.875 89.8441 42.2135 91.2035 42.9375L93.141 43.9791V31.4739C93.141 27.3281 92.0993 20.8177 90.1618 17.4583C88.2035 14.0989 85.3753 11.2708 81.7816 9.22913L68.8076 1.80725L65.7451 0.041626V26.7552C65.7451 31.0052 66.8493 35.4531 68.891 38.875C70.891 42.2604 73.8701 45.1093 77.6357 47.1302Z" fill="#BF202F"/>
</g>
<path d="M45.3079 59.0625L51.3235 62.526L56.1517 65.3125L56.2194 63.125C56.2611 61.5729 55.5163 60.2083 54.1777 59.4218L53.3861 58.9739L47.3704 55.5104C44.4121 53.8073 42.0735 51.4687 40.5006 48.7448C38.9277 46.0208 38.0944 42.8333 38.1152 39.4062L38.1621 27.9895L52.9017 36.4948C55.9433 38.2604 58.3236 40.6614 59.8965 43.4895C61.4694 46.3229 62.2767 49.5937 62.1517 53.1041L61.7454 66.0364C61.7038 67.5885 62.4486 68.9531 63.7871 69.7187L79.9329 79.0312L79.9954 76.8177C80.0371 75.2656 79.2923 73.9062 77.9538 73.1406L66.235 66.375L66.6413 53.4687C66.7871 49.2135 65.8079 45.1927 63.8756 41.7291C61.9381 38.2604 58.6413 35.0677 54.9642 32.9427L37.1413 22.6718L31.8027 19.5885L31.7819 23.1145L31.7142 38.0677C31.6933 42.2135 32.735 46.0885 34.6517 49.4479C36.61 52.8281 41.7142 56.9739 45.3079 59.0625Z" fill="#BF202F"/>
<mask id="mask2_757_4311" style="mask-type:luminance" maskUnits="userSpaceOnUse" x="0" y="61" width="77" height="32">
<path d="M0 61.4896H76.7813V92.1563H0V61.4896Z" fill="white"/>
</mask>
<g mask="url(#mask2_757_4311)">
<path d="M23.1872 87.9427C26.8643 90.073 31.2705 91.323 35.2445 91.2813C39.2236 91.2188 43.1768 90.073 46.8174 87.8177L57.7913 81.0105L69.5101 87.7709C70.8486 88.5417 72.4007 88.5157 73.7184 87.7084L75.5934 86.5417L59.4476 77.224C58.1091 76.4584 56.557 76.4792 55.2393 77.2865L44.2445 84.1146C41.2653 85.9636 38.0309 86.9219 34.7966 86.9636C31.5674 87.0052 28.2913 86.1563 25.2497 84.4115L10.5101 75.9063L20.3799 70.1615C23.333 68.4427 26.5049 67.5677 29.6507 67.5677C32.8018 67.5677 35.9684 68.4167 38.9268 70.1198L44.9424 73.5886L45.7288 74.0313C47.0726 74.823 48.6247 74.7761 49.9424 73.9688L51.8122 72.823L46.9841 70.0365L40.9684 66.5677C37.3747 64.5052 31.2236 62.1459 27.333 62.1459C23.4632 62.1667 19.5934 63.2084 15.9997 65.2917L3.06738 72.823L0.00488281 74.6094L5.34342 77.6927L23.1872 87.9427Z" fill="#BF202F"/>
</g>
<path d="M66.2142 121.932L77.9329 115.167C79.2715 114.401 80.0371 113.042 79.9746 111.49L79.9121 109.276L63.7871 118.594C62.4486 119.38 61.6829 120.74 61.7246 122.271L62.1308 135.203C62.235 138.693 61.4486 141.99 59.8756 144.818C58.3027 147.646 55.9173 150.047 52.8756 151.813L38.1413 160.323L38.0944 148.901C38.0736 145.474 38.9277 142.307 40.4798 139.563C42.0527 136.839 44.3704 134.521 47.3496 132.797L53.3652 129.333L54.1517 128.885C55.4954 128.099 56.2611 126.76 56.1986 125.188L56.1308 122.995L51.3027 125.781L45.2871 129.245C41.6933 131.313 36.584 135.479 34.6517 138.839C32.7142 142.198 31.6933 146.073 31.7142 150.219L31.7819 165.172L31.8027 168.703L37.1413 165.615L54.9433 155.344C58.6204 153.219 61.9173 150.026 63.8548 146.557C65.7871 143.094 66.7663 139.073 66.6152 134.818L66.2142 121.932Z" fill="#BF202F"/>
<mask id="mask3_757_4311" style="mask-type:luminance" maskUnits="userSpaceOnUse" x="0" y="96" width="77" height="31">
<path d="M0 96.1562H76.7813V126.823H0V96.1562Z" fill="white"/>
</mask>
<g mask="url(#mask3_757_4311)">
<path d="M46.9844 118.292L51.8125 115.505L49.9427 114.359C48.625 113.552 47.0729 113.51 45.7292 114.297L44.9427 114.74L38.9271 118.208C35.9688 119.911 32.776 120.781 29.651 120.76C26.5052 120.76 23.3333 119.891 20.3802 118.167L10.5104 112.422L25.25 103.917C28.2917 102.151 31.5677 101.302 34.7969 101.365C38.0313 101.406 41.2865 102.365 44.2448 104.214L55.2396 111.042C56.5573 111.87 58.1094 111.87 59.4479 111.104L75.5938 101.792L73.7188 100.62C72.401 99.8125 70.849 99.7917 69.5104 100.557L57.7917 107.318L46.8177 100.516C43.1979 98.2604 39.224 97.1094 35.2448 97.0469C31.2708 96.9844 26.8646 98.2396 23.1875 100.385L5.38542 110.656L0.046875 113.745L3.10938 115.531L16.0417 123.057C19.6146 125.141 23.4844 126.182 27.375 126.208C31.2448 126.208 37.4167 123.865 41.0104 121.781L46.9844 118.292Z" fill="#BF202F"/>
</g>
<mask id="mask4_757_4311" style="mask-type:luminance" maskUnits="userSpaceOnUse" x="100" y="116" width="31" height="72">
<path d="M100.781 116.156H130.115V188H100.781V116.156Z" fill="white"/>
</mask>
<g mask="url(#mask4_757_4311)">
<path d="M117.282 141.177L105.901 135.073V121.568C105.901 120.016 105.094 118.677 103.729 117.953L101.797 116.911V135.542C101.797 137.094 102.604 138.438 103.964 139.156L115.365 145.26C118.448 146.922 120.896 149.24 122.552 152.026C124.214 154.792 125.104 158.068 125.104 161.578V178.589L115.193 172.912C112.24 171.208 109.901 168.911 108.302 166.193C106.729 163.469 105.881 160.297 105.881 156.875V149.026C105.881 147.474 105.073 146.135 103.709 145.411L101.776 144.37V156.875C101.776 161.021 102.818 167.531 104.75 170.891C106.688 174.25 109.537 177.078 113.131 179.12L126.104 186.547L129.167 188.313V161.599C129.167 157.344 128.063 152.896 126.021 149.474C124.021 146.047 121.021 143.198 117.282 141.177Z" fill="#BF202F"/>
</g>
<mask id="mask5_757_4311" style="mask-type:luminance" maskUnits="userSpaceOnUse" x="64" y="116" width="31" height="72">
<path d="M64.7812 116.156H94.1146V188H64.7812V116.156Z" fill="white"/>
</mask>
<g mask="url(#mask5_757_4311)">
<path d="M89.0104 121.568V135.094L77.6354 141.198C73.8698 143.198 70.8906 146.073 68.849 149.474C66.8073 152.896 65.7031 157.344 65.7031 161.599V188.313L68.7656 186.547L81.7604 179.12C85.3542 177.078 88.2031 174.229 90.1406 170.891C92.0781 167.531 93.1198 161.021 93.1198 156.875V144.37L91.1823 145.411C89.8229 146.135 89.0104 147.474 89.0104 149.026V156.875C89.0104 160.297 88.1615 163.469 86.5885 166.193C85.0156 168.911 82.6771 171.229 79.6979 172.912L69.7865 178.589V161.578C69.7865 158.068 70.6771 154.792 72.3385 152.026C73.9948 149.24 76.4427 146.922 79.526 145.26L90.9271 139.156C92.2865 138.438 93.099 137.094 93.099 135.542V116.911L91.1615 117.953C89.8229 118.677 89.0104 120.016 89.0104 121.568Z" fill="#BF202F"/>
</g>
<mask id="mask6_757_4311" style="mask-type:luminance" maskUnits="userSpaceOnUse" x="118" y="96" width="78" height="31">
<path d="M118.115 96.1562H195.001V126.823H118.115V96.1562Z" fill="white"/>
</mask>
<g mask="url(#mask6_757_4311)">
<path d="M189.506 110.635L171.704 100.365C168.027 98.2395 163.626 96.9635 159.647 97.026C155.668 97.0885 151.715 98.2395 148.079 100.49L137.1 107.297L125.381 100.536C124.043 99.7708 122.491 99.7708 121.173 100.599L119.298 101.766L135.444 111.083C136.782 111.849 138.334 111.828 139.652 111.021L150.652 104.193C153.626 102.344 156.86 101.385 160.095 101.344C163.324 101.302 166.6 102.151 169.642 103.896L184.381 112.401L174.511 118.146C171.558 119.87 168.386 120.74 165.241 120.74C162.095 120.74 158.923 119.891 155.97 118.187L149.949 114.719L149.162 114.276C147.824 113.49 146.267 113.531 144.949 114.338L143.079 115.484L147.907 118.271L153.928 121.74C157.522 123.802 163.668 126.161 167.558 126.161C171.428 126.141 175.303 125.099 178.897 123.016L191.824 115.484L194.892 113.698L189.506 110.635Z" fill="#BF202F"/>
</g>
<path d="M149.584 129.245L143.568 125.781L138.74 122.995L138.699 125.188C138.657 126.74 139.397 128.099 140.74 128.885L141.527 129.333L147.542 132.797C150.501 134.5 152.839 136.839 154.391 139.563C155.969 142.286 156.798 145.474 156.777 148.88L156.735 160.297L141.995 151.792C138.954 150.026 136.568 147.625 134.995 144.797C133.423 141.964 132.615 138.693 132.74 135.182L133.147 122.25C133.188 120.698 132.443 119.339 131.084 118.573L114.938 109.255L114.876 111.469C114.834 113.021 115.579 114.38 116.917 115.146L128.636 121.911L128.214 134.818C128.063 139.073 129.042 143.094 130.975 146.563C132.912 150.026 136.209 153.219 139.886 155.344L157.688 165.615L163.027 168.703L163.048 165.172L163.115 150.219C163.136 146.073 162.094 142.198 160.178 138.839C158.308 135.479 153.183 131.333 149.584 129.245Z" fill="#BF202F"/>
<path d="M128.677 66.375L116.958 73.1406C115.62 73.9062 114.854 75.2656 114.917 76.8177L114.984 79.0312L131.125 69.7187C132.464 68.927 133.229 67.5677 133.187 66.0364L132.781 53.1041C132.677 49.5937 133.464 46.3229 135.036 43.4895C136.615 40.6614 138.974 38.2604 142.036 36.4948L156.776 27.9895L156.818 39.4062C156.839 42.8333 155.99 46 154.437 48.7448C152.859 51.4687 150.542 53.7864 147.568 55.5104L141.547 58.9739L140.76 59.4218C139.422 60.2083 138.656 61.5468 138.719 63.1041L138.781 65.2916L143.609 62.5052L149.63 59.0416C153.224 56.9739 158.328 52.8073 160.26 49.4479C162.198 46.0885 163.219 42.2135 163.198 38.0677L163.135 23.1145L163.115 19.5885L157.776 22.6718L139.974 32.9427C136.292 35.0677 132.995 38.2604 131.062 41.7291C129.125 45.1927 128.146 49.2135 128.297 53.4687L128.677 66.375Z" fill="#BF202F"/>
<mask id="mask7_757_4311" style="mask-type:luminance" maskUnits="userSpaceOnUse" x="118" y="61" width="78" height="32">
<path d="M118.115 61.4896H195.001V92.1563H118.115V61.4896Z" fill="white"/>
</mask>
<g mask="url(#mask7_757_4311)">
<path d="M147.907 70.0157L143.079 72.8021L144.949 73.948C146.267 74.7552 147.824 74.8021 149.162 74.0105L149.949 73.5677L155.97 70.099C158.923 68.3959 162.116 67.5261 165.241 67.5469C168.386 67.5469 171.558 68.4167 174.511 70.1407L184.381 75.8855L169.642 84.3907C166.6 86.1563 163.324 87.0052 160.095 86.9427C156.86 86.9011 153.605 85.9428 150.652 84.0938L139.652 77.2657C138.334 76.4375 136.782 76.4167 135.444 77.2032L119.298 86.5209L121.173 87.6667C122.491 88.474 124.043 88.5157 125.381 87.7292L137.1 80.9688L148.079 87.7709C151.694 90.0261 155.668 91.1771 159.647 91.2396C163.626 91.3021 168.027 90.0469 171.704 87.9011L189.506 77.6302L194.845 74.5469L191.782 72.7552L178.855 65.2292C175.277 63.1459 171.407 62.1042 167.517 62.0834C163.647 62.0834 157.48 64.4219 153.881 66.5052L147.907 70.0157Z" fill="#BF202F"/>
</g>
</svg>
